<?xml version="1.0" standalone="no"?>
<!DOCTYPE svg PUBLIC "-//W3C//DTD SVG 20010904//EN"
 "http://www.w3.org/TR/2001/REC-SVG-20010904/DTD/svg10.dtd">
<svg version="1.0" xmlns="http://www.w3.org/2000/svg"
 width="114.000000pt" height="114.000000pt" viewBox="0 0 114.000000 114.000000"
 preserveAspectRatio="xMidYMid meet">

<g transform="translate(0.000000,114.000000) scale(0.100000,-0.100000)"
fill="#000000" stroke="none">
<path d="M154 933 c-31 -54 -79 -135 -105 -181 l-49 -83 0 -209 c0 -116 4
-211 9 -214 6 -4 6 -20 0 -41 -6 -19 -7 -40 -4 -45 8 -13 162 -13 170 0 3 5 2
26 -4 45 -6 21 -6 37 0 41 5 3 9 89 9 192 1 143 4 191 14 205 13 17 16 16 40
-15 41 -55 56 -102 56 -180 0 -79 -24 -182 -65 -273 -17 -40 -21 -57 -12 -61
25 -9 722 1 720 11 -2 6 -19 53 -39 105 -29 76 -38 113 -42 186 -5 103 4 142
50 205 29 40 32 41 44 24 11 -14 14 -64 14 -206 0 -103 4 -190 9 -193 6 -4 6
-20 0 -41 -6 -19 -7 -40 -4 -45 8 -13 162 -13 170 0 3 5 2 26 -4 45 -6 21 -6
37 0 41 5 3 9 99 8 217 l0 212 -103 175 -102 175 -130 3 -130 3 -48 -71 c-27
-38 -52 -70 -56 -70 -4 0 -29 32 -56 70 l-48 70 -127 0 -128 0 -57 -97z m227
48 l-25 -19 54 -117 c29 -64 58 -119 63 -122 5 -3 25 12 43 33 l33 39 1 -327
0 -328 -150 0 c-84 0 -150 4 -150 9 0 5 9 30 20 56 71 165 69 334 -5 431 -24
32 -25 37 -25 198 l0 166 83 0 82 0 -24 -19z m529 -142 l0 -160 -30 -37 c-79
-99 -83 -267 -10 -437 11 -26 20 -51 20 -56 0 -5 -66 -9 -150 -9 l-150 0 0
331 0 332 31 -39 c17 -22 36 -39 42 -39 6 0 36 53 66 118 l55 119 -24 19 -25
19 88 0 87 0 0 -161z m-407 82 l46 -69 -31 -41 c-16 -23 -32 -41 -35 -41 -6 0
-83 165 -83 178 0 11 38 42 51 42 3 0 27 -31 52 -69z m215 53 c12 -8 22 -20
22 -26 0 -13 -77 -178 -83 -178 -3 0 -19 19 -36 41 l-30 42 47 68 c26 38 49
69 52 69 3 0 16 -7 28 -16z m-543 -301 c-24 -44 -25 -52 -25 -224 l0 -179 -60
0 -60 0 0 194 0 193 82 142 83 141 3 -111 c2 -103 1 -114 -23 -156z m858 119
l77 -133 0 -195 0 -194 -60 0 -60 0 0 183 c-1 176 -1 183 -25 222 -23 36 -25
50 -25 155 0 63 4 110 8 105 5 -6 43 -70 85 -143z m-899 -568 c11 -30 6 -34
-44 -34 -50 0 -55 4 -44 34 8 22 80 22 88 0z m960 0 c11 -30 6 -34 -44 -34
-50 0 -55 4 -44 34 8 22 80 22 88 0z"/>
<path d="M625 680 c-27 -29 -10 -74 28 -78 55 -7 79 52 35 82 -30 21 -41 20
-63 -4z m55 -30 c0 -5 -5 -12 -11 -16 -14 -8 -33 11 -25 25 7 11 36 4 36 -9z"/>
<path d="M621 531 c-16 -28 -14 -46 7 -64 25 -22 45 -21 67 3 15 16 17 26 9
48 -12 35 -67 44 -83 13z m55 -22 c10 -17 -13 -36 -27 -22 -12 12 -4 33 11 33
5 0 12 -5 16 -11z"/>
<path d="M625 390 c-27 -29 -10 -74 28 -78 55 -7 79 52 35 82 -30 21 -41 20
-63 -4z m55 -30 c0 -5 -5 -12 -11 -16 -14 -8 -33 11 -25 25 7 11 36 4 36 -9z"/>
<path d="M626 244 c-9 -8 -16 -23 -16 -33 0 -21 30 -51 52 -51 19 0 48 32 48
53 0 21 -27 47 -50 47 -10 0 -26 -7 -34 -16z m50 -25 c10 -17 -13 -36 -27 -22
-12 12 -4 33 11 33 5 0 12 -5 16 -11z"/>
</g>
</svg>
